<?xml version="1.0" standalone="no"?>
<!DOCTYPE svg PUBLIC "-//W3C//DTD SVG 20010904//EN"
 "http://www.w3.org/TR/2001/REC-SVG-20010904/DTD/svg10.dtd">
<svg version="1.0" xmlns="http://www.w3.org/2000/svg"
 width="360.000000pt" height="363.000000pt" viewBox="0 0 360.000000 363.000000"
 preserveAspectRatio="xMidYMid meet">
<metadata>
Created by potrace 1.10, written by Peter Selinger 2001-2011
</metadata>
<g transform="translate(0.000000,363.000000) scale(0.050000,-0.050000)"
fill="#d90000" stroke="none">
<path d="M2600 6290 c0 -511 -5 -930 -12 -930 -6 0 -36 16 -65 37 -96 66
-1525 888 -1531 880 -28 -37 -972 -1703 -972 -1716 0 -9 38 -39 85 -66 185
-107 1485 -861 1490 -864 2 -2 -281 -169 -630 -372 -349 -202 -708 -411 -798
-464 l-164 -95 234 -405 c129 -223 351 -610 494 -860 142 -250 266 -455 275
-455 8 0 363 203 787 450 425 248 780 450 790 450 9 0 17 -414 17 -920 l0
-920 990 0 990 0 0 922 c0 818 3 921 30 911 17 -7 374 -211 792 -455 472 -274
769 -435 780 -424 25 25 978 1686 977 1703 0 7 -356 219 -791 471 l-791 457
226 134 c125 73 481 280 792 461 426 247 563 336 554 359 -15 40 -948 1666
-968 1687 -8 9 -369 -191 -803 -443 l-788 -458 -5 927 -5 928 -990 0 -990 0 0
-930z m1137 219 c58 -73 79 -157 87 -332 l7 -154 -91 -13 c-49 -8 -135 -31
-190 -52 -55 -21 -107 -38 -115 -38 -27 0 -16 330 15 434 60 202 194 274 287
155z m332 -592 c125 -83 251 -243 251 -318 0 -159 -510 -181 -597 -25 -44 79
-387 -66 -452 -192 -55 -107 -37 -198 62 -304 47 -50 48 -61 43 -310 l-6 -258
-152 150 c-395 390 -407 803 -31 1073 326 234 691 310 882 184z m-357 -385 c6
-16 39 -40 73 -54 l61 -25 -13 -579 c-16 -678 -9 -655 -243 -852 -80 -67 -151
-122 -158 -122 -7 0 -12 355 -12 789 l0 790 44 23 c109 58 231 73 248 30z
m246 -905 c448 -331 410 -573 -156 -1005 -366 -279 -454 -396 -401 -534 31
-81 51 -508 24 -508 -81 0 -329 264 -374 397 -109 320 -10 524 445 916 330
284 348 313 360 578 5 115 14 209 20 209 6 0 43 -24 82 -53z m-145 -1352 c-7
-168 -18 -489 -25 -715 -8 -257 -21 -421 -35 -438 -28 -35 -234 -168 -244
-158 -11 11 -49 872 -49 1117 l0 211 65 62 c92 89 262 223 282 225 10 0 12
-134 6 -304z m140 -692 c410 -324 342 -579 -232 -868 -292 -147 -318 -175
-261 -281 42 -78 58 -314 21 -314 -59 0 -256 233 -278 330 -47 199 11 281 352
493 292 181 281 163 269 467 -11 284 -11 284 129 173z m-208 -1361 l-16 -387
-69 -58 c-112 -93 -116 -75 -125 480 l-5 328 110 57 110 56 6 -44 c3 -24 -2
-218 -11 -432z m115 -297 c0 -145 -202 -310 -438 -358 -95 -19 -74 19 33 57
235 84 296 154 316 364 l13 137 38 -57 c22 -34 38 -93 38 -143z m-152 -400
c-22 -219 -89 -327 -116 -190 -42 214 -40 234 31 269 97 48 98 47 85 -79z"/>
</g>
</svg>
